<svg xmlns="http://www.w3.org/2000/svg" width="26.83" height="26.83" viewBox="0 0 26.83 26.83"><defs><style>.a{fill:#41b883;}.b{fill:#148050;}.c{fill:#fff;}.d{fill:#e5e5e5;}</style></defs><path class="a" d="M24.594,0H2.236A2.238,2.238,0,0,0,0,2.236V24.594A2.238,2.238,0,0,0,2.236,26.83H24.594a2.238,2.238,0,0,0,2.236-2.236V2.236A2.238,2.238,0,0,0,24.594,0Z"/><g transform="translate(0 0.038)"><path class="b" d="M26.383,25.731H3.13A1.341,1.341,0,0,1,1.789,24.39V1.137A2.248,2.248,0,0,1,1.827.728,2.239,2.239,0,0,0,0,2.926V25.284A2.238,2.238,0,0,0,2.236,27.52H24.594a2.239,2.239,0,0,0,2.2-1.827A2.244,2.244,0,0,1,26.383,25.731Z" transform="translate(0 -0.728)"/><path class="b" d="M172.9,75.347V66.4h-.447a1.791,1.791,0,0,1-1.789-1.789V61.038a1.791,1.791,0,0,1,1.789-1.789h.447v-.894a7.163,7.163,0,0,1,7.155-7.155h3.577a1.791,1.791,0,0,1,1.789,1.789v3.577a1.791,1.791,0,0,1-1.789,1.789h-3.577v.894h3.577a1.791,1.791,0,0,1,1.789,1.789v3.577a1.791,1.791,0,0,1-1.789,1.789h-3.577v8.943Z" transform="translate(-161.724 -48.555)"/></g><path class="c" d="M204.316,81.272h3.577a.447.447,0,0,0,.447-.447V77.247a.447.447,0,0,0-.447-.447h-3.577a5.813,5.813,0,0,0-5.813,5.813v2.236h-1.789a.447.447,0,0,0-.447.447v3.577a.447.447,0,0,0,.447.447H198.5V99.605h4.472V89.321h4.919a.447.447,0,0,0,.447-.447V85.3a.447.447,0,0,0-.447-.447h-4.919V82.613A1.342,1.342,0,0,1,204.316,81.272Z" transform="translate(-185.982 -72.776)"/><rect class="d" width="4.472" height="1.789" transform="translate(12.521 25.041)"/></svg>