<svg xmlns="http://www.w3.org/2000/svg" width="28" height="28" viewBox="0 0 28 28">
  <g id="Group_128" data-name="Group 128" transform="translate(-628 -516)">
    <path id="Path_88" data-name="Path 88" d="M14,0A14,14,0,1,1,0,14,14,14,0,0,1,14,0Z" transform="translate(628 516)" fill="#fff"/>
    <g id="Group_8" data-name="Group 8" transform="translate(438 2)">
      <path id="Subtraction_1" data-name="Subtraction 1" d="M10.581,27.579h0a14.073,14.073,0,0,1-7.57-4.9A14,14,0,0,1,4.1,4.1,14,14,0,1,1,17.619,27.528l-.048-.038a1.182,1.182,0,0,1-.4-.481,6.648,6.648,0,0,1-.154-2.481,13.389,13.389,0,0,0-.007-1.99,2.393,2.393,0,0,0-.488-1.243,2.7,2.7,0,0,1-.312-.548c2.3-.2,3.837-1.166,4.584-2.886a27.756,27.756,0,0,1,4.444.624c.31.062.6.12.89.173a22.13,22.13,0,0,0-5.334-.92c-.02-.444.343-.465.635-.482l.116-.008c.218-.017.448-.025.685-.025a20.105,20.105,0,0,1,3.235.345c.252.041.49.08.714.114a9.391,9.391,0,0,0-3.5-.481c-.574-.011-1.168-.023-1.72-.073a9.769,9.769,0,0,0,.158-3.771,5.209,5.209,0,0,0-1.219-2.86,5.535,5.535,0,0,0-.213-3.19,3.8,3.8,0,0,0-1.713.424,3.638,3.638,0,0,0-.532.375,1.992,1.992,0,0,1-.854.491c-.029,0-.061,0-.093,0a3.161,3.161,0,0,1-.762-.145,4.393,4.393,0,0,0-.844-.169c-.255-.016-.506-.025-.746-.025a8.9,8.9,0,0,0-2.877.459l-.111-.086a4.959,4.959,0,0,0-2.93-1.327A5.022,5.022,0,0,0,8,10.737C6.821,11.9,6.576,15.1,7.148,17.187H6.2a11.377,11.377,0,0,0-4.111.494,24.234,24.234,0,0,1,3.575-.433c.091,0,.189-.012.293-.02.168-.014.341-.028.511-.028.4,0,.874.069.953.6a15.125,15.125,0,0,0-5.278.922,24.946,24.946,0,0,1,5.334-.865c.715,1.622,2.2,2.557,4.686,2.943a2.75,2.75,0,0,0-.85,1.6c-.15.041-.279.087-.4.132a2.128,2.128,0,0,1-.787.171l-.089,0c-.786-.028-1.228-.639-1.656-1.231s-.839-1.159-1.567-1.159a1.7,1.7,0,0,0-.459.068,1.18,1.18,0,0,0,.538.7,1.771,1.771,0,0,1,.424.4,3.047,3.047,0,0,1,.378.86,4.354,4.354,0,0,0,.258.669,2.41,2.41,0,0,0,2.284,1.293,4.542,4.542,0,0,0,1.021-.125,8.274,8.274,0,0,0,0,1.282,3.757,3.757,0,0,1-.11,1.546.974.974,0,0,1-.411.457c-.055.038-.106.073-.155.114Z" transform="translate(190 514)" fill="#41b883"/>
      <path id="Path_65" data-name="Path 65" d="M1.867,14A14,14,0,0,1,14.933.032C14.625.011,14.314,0,14,0a14,14,0,0,0,0,28c.314,0,.625-.011.933-.032A14,14,0,0,1,1.867,14Z" transform="translate(190 514)" fill="#148050"/>
    </g>
  </g>
</svg>
