<svg xmlns="http://www.w3.org/2000/svg" width="18" height="18" viewBox="0 0 18 18"><defs><style>.a{fill:#35495e;}</style></defs><g transform="translate(0 -0.003)"><path class="a" d="M17.6,15.645l-3.71-3.71a7.408,7.408,0,0,0,1.341-4.316,7.48,7.48,0,0,0-.6-2.959A7.458,7.458,0,0,0,10.574.6,7.59,7.59,0,0,0,4.657.6,7.458,7.458,0,0,0,.6,4.66a7.59,7.59,0,0,0,0,5.917,7.46,7.46,0,0,0,4.057,4.057,7.484,7.484,0,0,0,2.958.6,7.409,7.409,0,0,0,4.316-1.341l3.71,3.7a1.285,1.285,0,0,0,.973.411,1.384,1.384,0,0,0,.984-2.358Zm-6.561-4.6a4.667,4.667,0,0,1-3.424,1.423,4.667,4.667,0,0,1-3.424-1.423A4.667,4.667,0,0,1,2.769,7.618,4.667,4.667,0,0,1,4.192,4.195,4.667,4.667,0,0,1,7.615,2.772a4.668,4.668,0,0,1,3.424,1.423,4.667,4.667,0,0,1,1.423,3.424A4.667,4.667,0,0,1,11.039,11.042Z" transform="translate(0 0)"/></g></svg>