<svg xmlns="http://www.w3.org/2000/svg" width="32.193" height="32.193" viewBox="0 0 32.193 32.193"><defs><style>.a{fill:#41b883;}.b{fill:#fcfcfc;}</style></defs><path class="a" d="M42.312,30.889H37.669V19.436a3.405,3.405,0,1,0-6.81,0v4.643H19.405a3.405,3.405,0,1,0,0,6.81h4.643V42.343a3.405,3.405,0,1,0,6.81,0V37.7H42.312a3.405,3.405,0,1,0,0-6.81Zm0,0" transform="translate(-14.762 -14.79)"/><path class="b" d="M29.967,15.545a4.637,4.637,0,0,0-5.823-6.957V4.643a4.638,4.638,0,0,0-8.6-2.417A4.637,4.637,0,0,0,8.588,8.048H4.643a4.638,4.638,0,0,0-2.417,8.6A4.637,4.637,0,0,0,8.048,23.6V27.55a4.638,4.638,0,0,0,8.6,2.417A4.637,4.637,0,0,0,23.6,24.145H27.55a4.638,4.638,0,0,0,2.417-8.6Zm-3.656-5.02a2.167,2.167,0,0,1,0,4.334H24.145V12.691A2.169,2.169,0,0,1,26.312,10.525ZM17.335,4.643a2.167,2.167,0,1,1,4.334,0V14.858H17.335Zm-6.81,1.238a2.167,2.167,0,1,1,4.334,0V8.048H12.691A2.169,2.169,0,0,1,10.524,5.881ZM4.643,10.525H14.858v4.334H4.643a2.167,2.167,0,0,1,0-4.334ZM5.881,21.668a2.167,2.167,0,1,1,0-4.334H8.048V19.5A2.169,2.169,0,0,1,5.881,21.668Zm8.977,5.881a2.167,2.167,0,1,1-4.334,0V17.335h4.334Zm6.81-1.238a2.167,2.167,0,1,1-4.334,0V24.145H19.5A2.169,2.169,0,0,1,21.668,26.312Zm5.881-4.643H17.335V17.335H27.55a2.167,2.167,0,1,1,0,4.334Zm0,0" transform="translate(0 0)"/></svg>