<svg xmlns="http://www.w3.org/2000/svg" width="30.998" height="26.83" viewBox="0 0 30.998 26.83">
  <g id="Group_10" data-name="Group 10" transform="translate(-57 -515)">
    <path id="Path_75" data-name="Path 75" d="M410.413,81.738a.531.531,0,0,0-.612.055,5.853,5.853,0,0,1-5.012,1.27.531.531,0,0,0-.612.7l1.218,3.466a.531.531,0,0,0,.669.328,6.907,6.907,0,0,0,4.6-5.257A.531.531,0,0,0,410.413,81.738Z" transform="translate(-322.68 436.194)" fill="#148050"/>
    <path id="Path_76" data-name="Path 76" d="M399.881,43.319a.531.531,0,0,0-.6.119,5.854,5.854,0,0,1-4.683,1.8.531.531,0,0,0-.541.706l1.191,3.389a.531.531,0,0,0,.7.315,6.915,6.915,0,0,0,4.244-5.8A.531.531,0,0,0,399.881,43.319Z" transform="translate(-313.168 472.263)" fill="#148050"/>
    <path id="Path_77" data-name="Path 77" d="M27.079,37.106a6.162,6.162,0,0,0-5.215-2.681,6.915,6.915,0,0,0-6.907,6.907c0,.143,0,.287.014.432A13.284,13.284,0,0,1,2.4,36.1a.536.536,0,0,0-.915.068,7.879,7.879,0,0,0,0,6.891,10.779,10.779,0,0,0,.63,1.189L.93,43.716a.536.536,0,0,0-.742.574A8.555,8.555,0,0,0,3.906,50.1q.209.141.415.263h-.8a.536.536,0,0,0-.419.859,14.418,14.418,0,0,0,4.9,4.011,16.956,16.956,0,0,1-7.52,2.505.531.531,0,0,0-.263.962C2.54,60.355,6.063,61.255,10,61.255a27.2,27.2,0,0,0,3.09-.179,18.886,18.886,0,0,0,9.948-4.485,16.4,16.4,0,0,0,4.076-5.463,19.165,19.165,0,0,0,1.655-8.069A10.341,10.341,0,0,0,27.079,37.106Z" transform="translate(56.999 480.575)" fill="#41b883"/>
    <path id="Path_78" data-name="Path 78" d="M28.174,114.723a12.571,12.571,0,0,1,.145,1.914,19.165,19.165,0,0,1-1.655,8.069,16.394,16.394,0,0,1-4.076,5.463,18.886,18.886,0,0,1-9.948,4.485,27.182,27.182,0,0,1-3.09.179,19,19,0,0,1-8.4-1.729c-.22.028-.441.053-.662.071a.531.531,0,0,0-.263.962c2.317,1.654,5.84,2.554,9.779,2.554a27.2,27.2,0,0,0,3.09-.179,18.886,18.886,0,0,0,9.948-4.485,16.4,16.4,0,0,0,4.076-5.463,19.165,19.165,0,0,0,1.655-8.069A11.714,11.714,0,0,0,28.174,114.723Z" transform="translate(56.999 405.139)" fill="#148050"/>
    <path id="Path_79" data-name="Path 79" d="M336.382,87.08a1.594,1.594,0,1,0,1.594,1.594A1.6,1.6,0,0,0,336.382,87.08Z" transform="translate(-257.519 431.108)" fill="#fff"/>
  </g>
</svg>
