<svg xmlns="http://www.w3.org/2000/svg" width="35" height="26.833" viewBox="0 0 35 26.833"><defs><style>.a{fill:#41b883;}.b{fill:#148050;}.c{fill:#fff;}.d{fill:#e5e5e5;}</style></defs><g transform="translate(0 -59.733)"><path class="a" d="M29.75,59.733H5.25A5.256,5.256,0,0,0,0,64.983V81.316a5.256,5.256,0,0,0,5.25,5.25h24.5A5.256,5.256,0,0,0,35,81.316V64.983A5.256,5.256,0,0,0,29.75,59.733Z" transform="translate(0 0)"/><path class="b" d="M31.5,95.324H5.25a3.5,3.5,0,0,1-3.5-3.5V73.741a5.226,5.226,0,0,1,.764-2.729A5.252,5.252,0,0,0,0,75.491V91.824a5.256,5.256,0,0,0,5.25,5.25h24.5a5.252,5.252,0,0,0,4.479-2.514A5.225,5.225,0,0,1,31.5,95.324Z" transform="translate(0 -10.508)"/><path class="c" d="M191.768,144.241,180.1,136.658a.589.589,0,0,0-.9.489v15.167a.589.589,0,0,0,.9.489l11.667-7.583A.589.589,0,0,0,191.768,144.241Z" transform="translate(-166.95 -71.581)"/><path class="d" d="M180.95,137.212l-.849-.552a.589.589,0,0,0-.9.489v15.167a.589.589,0,0,0,.9.489l.849-.552Z" transform="translate(-166.95 -71.583)"/></g></svg>